#!OML:ASF H:\MichaelJackson\Top Level 1\Subject 1\Session 1\male.ASF
:FULLY-SPECIFIED
:DEGREES
1720
root -4.80463 17.071 22.4982 -354.763 46.9674 -10.1256
lowerback 8.62272 1.5251 3.60879
upperback 2.20684 2.46924 2.73195
thorax -2.51351 1.23353 0.536183
lowerneck -9.52252 -5.28352 -1.11015
upperneck 16.2859 -7.63726 4.09038
head 6.73737 -3.36934 0.83253
rclavicle 6.30147e-014 5.1684e-015
rhumerus -43.2822 7.32907 -93.1369
rradius 54.1028
rwrist -8.36224
rhand -26.5963 -36.6743
rfingers 7.12502
rthumb -0.0301455 -66.654
lclavicle 6.30147e-014 5.1684e-015
lhumerus -36.272 -27.5012 96.5649
lradius 129.404
lwrist 42.2074
lhand -9.25376 17.3508
lfingers 7.12502
lthumb 16.7022 46.6523
rfemur -27.6084 -4.8189 33.5454
rtibia 31.5376
rfoot -14.9668 4.01606
rtoes 17.0045
lfemur -60.9489 2.64852 -12.6658
ltibia 68.9743
lfoot 12.2996 -9.03421
ltoes 42.7852
1721
root -4.7598 17.0723 22.548 -354.977 46.751 -10.3791
lowerback 8.62018 1.48883 3.79119
upperback 2.21903 2.43857 2.77711
thorax -2.49421 1.21825 0.484574
lowerneck -9.53247 -5.17643 -1.13368
upperneck 16.3891 -7.4831 4.04083
head 6.76669 -3.2982 0.83324
rclavicle 5.19822e-014 -2.14687e-014
rhumerus -43.6214 7.485 -93.1922
rradius 53.8052
rwrist -7.68483
rhand -26.9761 -35.753
rfingers 7.12502
rthumb -0.396964 -65.7323
lclavicle 5.19822e-014 -2.14687e-014
lhumerus -35.2227 -27.2049 95.9788
lradius 129.903
lwrist 40.8633
lhand -7.59696 16.1924
lfingers 7.12502
lthumb 18.2966 45.3519
rfemur -27.1642 -5.06806 33.8041
rtibia 31.299
rfoot -15.187 4.39342
rtoes 16.5517
lfemur -60.7956 2.56306 -12.4482
ltibia 67.2319
lfoot 13.5116 -8.80002
ltoes 43.5433
1722
root -4.71401 17.0748 22.598 -355.102 46.4653 -10.5668
lowerback 8.57667 1.48759 3.92721
upperback 2.22561 2.44702 2.80543
thorax -2.45858 1.22262 0.438572
lowerneck -9.5778 -5.0881 -1.14281
upperneck 16.5105 -7.35852 3.99595
head 6.80862 -3.23911 0.829347
rclavicle 6.4605e-014 9.54166e-015
rhumerus -43.9023 7.56898 -93.2089
rradius 53.4775
rwrist -6.99028
rhand -27.4572 -34.885
rfingers 7.12502
rthumb -0.861703 -64.863
lclavicle 6.4605e-014 9.54166e-015
lhumerus -34.1676 -26.9378 95.4933
lradius 130.237
lwrist 39.9356
lhand -6.40598 15.3109
lfingers 7.12502
lthumb 19.442 44.3589
rfemur -26.7717 -5.39708 34.0211
rtibia 31.0798
rfoot -15.3022 5.15899
rtoes 17.3021
lfemur -60.6064 2.56836 -12.2822
ltibia 65.5167
lfoot 14.8707 -8.09153
ltoes 44.43
1723
root -4.66309 17.0756 22.6466 -355.216 46.3299 -10.8668
lowerback 8.40926 1.42807 4.27287
upperback 2.19213 2.38953 2.82569
thorax -2.388 1.1936 0.277175
lowerneck -9.6017 -4.99963 -1.11273
upperneck 16.6031 -7.23136 3.90892
head 6.83445 -3.1811 0.806887
rclavicle 6.82825e-014 1.21259e-014
rhumerus -44.1866 7.69658 -93.2534
rradius 53.1613
rwrist -6.35336
rhand -27.7851 -33.9442
rfingers 7.12502
rthumb -1.17837 -63.9206
lclavicle 6.82825e-014 1.21259e-014
lhumerus -33.1932 -26.6942 95.0294
lradius 130.535
lwrist 39.6546
lhand -5.72818 14.7002
lfingers 7.12502
lthumb 20.0936 43.6811
rfemur -26.5265 -6.18561 34.363
rtibia 30.8976
rfoot -15.5701 6.19794
rtoes 17.5262
lfemur -60.4701 2.38809 -12.0081
ltibia 63.8254
lfoot 16.1632 -7.07356
ltoes 44.9942
1724
root -4.61547 17.0709 22.6933 -355.374 46.1638 -11.2254
lowerback 8.33902 1.40898 4.64132
upperback 2.14185 2.39374 2.84053
thorax -2.38625 1.1938 0.0881751
lowerneck -9.62785 -4.9536 -1.05032
upperneck 16.6457 -7.16736 3.83209
head 6.8457 -3.1518 0.777109
rclavicle 1.12413e-013 1.25234e-014
rhumerus -44.432 7.6794 -93.2648
rradius 52.8467
rwrist -5.70399
rhand -27.8943 -32.9893
rfingers 7.12502
rthumb -1.28387 -62.9652
lclavicle 1.12413e-013 1.25234e-014
lhumerus -32.4097 -26.5491 94.6739
lradius 130.864
lwrist 40.0434
lhand -5.69482 14.221
lfingers 7.12502
lthumb 20.1257 43.1986
rfemur -26.3115 -6.8785 34.7287
rtibia 30.7651
rfoot -15.7945 7.27673
rtoes 18.2432
lfemur -60.2964 2.23939 -11.6602
ltibia 62.1636
lfoot 17.2561 -6.09065
ltoes 44.7991
1725
root -4.56658 17.065 22.7398 -355.439 45.9965 -11.5322
lowerback 8.19354 1.34556 4.93257
upperback 2.09929 2.32788 2.89428
thorax -2.34204 1.16049 -0.00831953
lowerneck -9.69438 -4.84875 -1.02852
upperneck 16.6481 -7.01035 3.72299
head 6.84897 -3.08395 0.751382
rclavicle -1.03865e-014 -2.38542e-015
rhumerus -44.6297 7.82674 -93.2705
rradius 52.5632
rwrist -5.20335
rhand -28.1738 -32.2433
rfingers 7.12502
rthumb -1.55378 -62.2174
lclavicle -1.03865e-014 -2.38542e-015
lhumerus -31.5271 -26.1553 94.2273
lradius 131.101
lwrist 41.1849
lhand -5.76015 14.2247
lfingers 7.12502
lthumb 20.0629 43.2089
rfemur -26.1956 -7.57533 35.0494
rtibia 30.7021
rfoot -15.9961 8.42475
rtoes 19.3949
lfemur -60.1046 2.08085 -11.3189
ltibia 60.5382
lfoot 18.1255 -5.21143
ltoes 44.6016
1726
root -4.51765 17.0587 22.7871 -355.471 45.81 -11.7552
lowerback 8.03952 1.30356 5.04323
upperback 2.0773 2.27515 3.00119
thorax -2.28119 1.13531 0.0497149
lowerneck -9.7126 -4.75817 -0.986385
upperneck 16.581 -6.86025 3.53938
head 6.81823 -3.02686 0.699902
rclavicle -1.10922e-013 6.0033e-014
rhumerus -44.7855 7.84523 -93.1232
rradius 52.2895
rwrist -4.61064
rhand -27.959 -31.3534
rfingers 7.12502
rthumb -1.34627 -61.3289
lclavicle -1.10922e-013 6.0033e-014
lhumerus -30.8437 -25.725 93.9503
lradius 131.289
lwrist 42.663
lhand -6.14901 14.4202
lfingers 7.12502
lthumb 19.6891 43.4431
rfemur -26.0758 -8.23675 35.3042
rtibia 30.6858
rfoot -16.2096 9.47099
rtoes 20.0997
lfemur -59.8338 1.89579 -11.0077
ltibia 58.9597
lfoot 18.8661 -4.6896
ltoes 44.2875
